<svg width="104" height="116" viewBox="0 0 104 116" fill="none" xmlns="http://www.w3.org/2000/svg">
<path d="M53.204 94.0877C40.554 94.0877 29.3714 87.6109 22.844 77.8957C22.9958 67.7757 43.084 62.2097 53.204 62.2097C63.324 62.2097 83.4122 67.7757 83.564 77.8957C77.0366 87.6109 65.854 94.0877 53.204 94.0877ZM53.204 22.2357C57.23 22.2357 61.0911 23.835 63.9379 26.6818C66.7847 29.5286 68.384 33.3897 68.384 37.4157C68.384 41.4417 66.7847 45.3027 63.9379 48.1496C61.0911 50.9964 57.23 52.5957 53.204 52.5957C49.178 52.5957 45.3169 50.9964 42.4701 48.1496C39.6233 45.3027 38.024 41.4417 38.024 37.4157C38.024 33.3897 39.6233 29.5286 42.4701 26.6818C45.3169 23.835 49.178 22.2357 53.204 22.2357ZM53.204 7.05566C46.5591 7.05566 39.9793 8.36447 33.8402 10.9074C27.7011 13.4502 22.123 17.1774 17.4244 21.8761C7.93506 31.3654 2.604 44.2357 2.604 57.6557C2.604 71.0756 7.93506 83.9459 17.4244 93.4353C22.123 98.1339 27.7011 101.861 33.8402 104.404C39.9793 106.947 46.5591 108.256 53.204 108.256C66.624 108.256 79.4943 102.925 88.9836 93.4353C98.473 83.9459 103.804 71.0756 103.804 57.6557C103.804 29.6739 81.034 7.05566 53.204 7.05566Z" fill="#686B6F"/>
</svg>
