<svg width="45" height="45" viewBox="0 0 40 40" fill="none" xmlns="http://www.w3.org/2000/svg">
<path d="M20.1377 27.7208C17.3877 27.7208 14.9567 26.3128 13.5377 24.2008C13.5707 22.0008 17.9377 20.7908 20.1377 20.7908C22.3377 20.7908 26.7047 22.0008 26.7377 24.2008C25.3187 26.3128 22.8877 27.7208 20.1377 27.7208ZM20.1377 12.1008C21.0129 12.1008 21.8523 12.4485 22.4711 13.0673C23.09 13.6862 23.4377 14.5256 23.4377 15.4008C23.4377 16.276 23.09 17.1154 22.4711 17.7342C21.8523 18.3531 21.0129 18.7008 20.1377 18.7008C19.2625 18.7008 18.4231 18.3531 17.8042 17.7342C17.1854 17.1154 16.8377 16.276 16.8377 15.4008C16.8377 14.5256 17.1854 13.6862 17.8042 13.0673C18.4231 12.4485 19.2625 12.1008 20.1377 12.1008ZM20.1377 8.80078C18.6932 8.80078 17.2628 9.0853 15.9282 9.63811C14.5936 10.1909 13.381 11.0012 12.3595 12.0226C10.2966 14.0855 9.1377 16.8834 9.1377 19.8008C9.1377 22.7182 10.2966 25.5161 12.3595 27.579C13.381 28.6004 14.5936 29.4107 15.9282 29.9635C17.2628 30.5163 18.6932 30.8008 20.1377 30.8008C23.0551 30.8008 25.853 29.6419 27.9159 27.579C29.9788 25.5161 31.1377 22.7182 31.1377 19.8008C31.1377 13.7178 26.1877 8.80078 20.1377 8.80078Z" fill="#686B6F"/>
</svg>
