<svg width="30" height="30" viewBox="0 0 40 40" fill="none" xmlns="http://www.w3.org/2000/svg">
<path d="M22.2222 28.8C22.2222 29.3835 21.9881 29.9431 21.5713 30.3556C21.1546 30.7682 20.5894 31 20 31C19.4106 31 18.8454 30.7682 18.4287 30.3556C18.0119 29.9431 17.7778 29.3835 17.7778 28.8H22.2222ZM20 9C20.2947 9 20.5773 9.11589 20.7857 9.32218C20.994 9.52847 21.1111 9.80826 21.1111 10.1V11.288C24.2667 11.816 26.6667 14.533 26.6667 17.8V24.4L30 27.7H10L13.3333 24.4V17.8C13.3333 14.533 15.7333 11.816 18.8889 11.288V10.1C18.8889 9.80826 19.006 9.52847 19.2143 9.32218C19.4227 9.11589 19.7053 9 20 9Z" fill="#686B6F"/>
</svg>
