<svg width="243" height="62" viewBox="0 0 243 62" fill="#FFFFFF" xmlns="http://www.w3.org/2000/svg">
<g clip-path="url(#clip0_850_1316)">
<path d="M36 15.7418V45.4434C36 46.6053 35.5309 47.7196 34.6958 48.5412C33.8607 49.3628 32.7281 49.8244 31.5472 49.8244C30.3662 49.8244 29.2336 49.3628 28.3985 48.5412C27.5635 47.7196 27.0943 46.6053 27.0943 45.4434V26.8799C24.3008 28.2822 21.2116 29.0198 18.0755 29.0333C14.8744 29.009 11.7273 28.219 8.90566 26.7314V45.2949C8.90566 46.4568 8.43652 47.5711 7.60146 48.3927C6.76639 49.2143 5.63379 49.6759 4.45283 49.6759C3.27187 49.6759 2.13927 49.2143 1.3042 48.3927C0.469136 47.5711 0 46.4568 0 45.2949L0 15.5933C0 14.4314 0.469136 13.3171 1.3042 12.4955C2.13927 11.6739 3.27187 11.2123 4.45283 11.2123C5.63379 11.2123 6.76639 11.6739 7.60146 12.4955C8.43652 13.3171 8.90566 14.4314 8.90566 15.5933V20.1228C11.54 22.0371 14.725 23.0773 18 23.093C21.267 23.0655 24.4448 22.0407 27.0943 20.1599V15.7418C27.0943 14.5799 27.5635 13.4656 28.3985 12.644C29.2336 11.8224 30.3662 11.3608 31.5472 11.3608C32.7281 11.3608 33.8607 11.8224 34.6958 12.644C35.5309 13.4656 36 14.5799 36 15.7418Z" fill="#FFFFFF"/>
<path d="M8.90566 4.38098C8.90566 1.96143 6.91206 0 4.45283 0C1.9936 0 0 1.96143 0 4.38098V5.16065C0 7.58019 1.9936 9.54163 4.45283 9.54163C6.91206 9.54163 8.90566 7.58019 8.90566 5.16065V4.38098Z" fill="#FFFFFF"/>
<path d="M36 4.38098C36 1.96143 34.0064 0 31.5472 0C29.088 0 27.0944 1.96143 27.0944 4.38098V5.16065C27.0944 7.58019 29.088 9.54163 31.5472 9.54163C34.0064 9.54163 36 7.58019 36 5.16065V4.38098Z" fill="#FFFFFF"/>
</g>
<path d="M51.7208 61.238C51.4391 61.238 51.1221 61.1676 50.7699 61.0267C49.5724 60.4984 49.2378 59.6531 49.7661 58.4908L66.8303 20.8755C67.3586 19.7485 68.2039 19.4315 69.3662 19.9246C70.5637 20.4177 70.8983 21.2453 70.37 22.4076L53.2529 60.0229C52.9007 60.833 52.39 61.238 51.7208 61.238ZM57.585 47.7662C57.0567 48.0128 56.5636 48.0656 56.1058 47.9247C55.6479 47.7486 55.2781 47.3964 54.9963 46.8681L43.2151 22.4604C42.9686 21.9321 42.9334 21.439 43.1095 20.9812C43.2856 20.5233 43.6378 20.1711 44.1661 19.9246C44.6944 19.678 45.1875 19.6428 45.6453 19.8189C46.1032 19.9598 46.4554 20.2944 46.7019 20.8227L58.2718 45.2304C58.5536 45.7587 58.6416 46.2518 58.536 46.7096C58.4303 47.1675 58.1133 47.5197 57.585 47.7662Z" fill="#FFFFFF"/>
<path d="M77.3886 30.8605C77.4943 28.6768 78.0578 26.7221 79.0792 24.9963C80.1358 23.2705 81.4918 21.9145 83.1471 20.9284C84.8377 19.9422 86.7044 19.4491 88.7472 19.4491C90.3673 19.4491 91.6176 19.678 92.4981 20.1359C93.3786 20.5938 93.7132 21.2629 93.5019 22.1435C93.361 22.6718 93.1145 23.024 92.7623 23.2001C92.4453 23.3762 92.0403 23.4466 91.5472 23.4114C91.0893 23.3762 90.561 23.3409 89.9623 23.3057C87.9899 23.1296 86.2289 23.3409 84.6792 23.9397C83.1647 24.5032 81.9496 25.3837 81.0339 26.5812C80.1534 27.7787 79.7131 29.2051 79.7131 30.8605H77.3886ZM77.7056 48.6644C77.0716 48.6644 76.5785 48.4883 76.2263 48.1361C75.8741 47.7838 75.698 47.2908 75.698 46.6568V21.7736C75.698 21.1397 75.8741 20.6466 76.2263 20.2944C76.5785 19.9422 77.0716 19.7661 77.7056 19.7661C78.3395 19.7661 78.8326 19.9422 79.1848 20.2944C79.537 20.6466 79.7131 21.1397 79.7131 21.7736V46.6568C79.7131 47.2908 79.537 47.7838 79.1848 48.1361C78.8326 48.4883 78.3395 48.6644 77.7056 48.6644Z" fill="#FFFFFF"/>
<path d="M110.881 48.9285C108.029 48.9285 105.493 48.3122 103.274 47.0794C101.09 45.8115 99.3644 44.0681 98.0965 41.8492C96.8638 39.6303 96.2474 37.0945 96.2474 34.2416C96.2474 31.3536 96.8286 28.8177 97.9908 26.634C99.1883 24.4152 100.826 22.6718 102.904 21.4038C104.982 20.1359 107.377 19.5019 110.089 19.5019C112.766 19.5019 115.09 20.1183 117.063 21.351C119.07 22.5485 120.62 24.2215 121.712 26.3699C122.804 28.5183 123.349 30.9661 123.349 33.7133C123.349 34.2769 123.173 34.7347 122.821 35.0869C122.469 35.4039 122.011 35.5624 121.448 35.5624H98.9946V32.1812H121.87L119.599 33.819C119.634 31.7762 119.264 29.9448 118.489 28.3246C117.714 26.7045 116.605 25.4366 115.161 24.5208C113.752 23.6051 112.061 23.1472 110.089 23.1472C108.081 23.1472 106.32 23.6227 104.806 24.5737C103.291 25.5246 102.112 26.8454 101.266 28.5359C100.456 30.1913 100.051 32.0932 100.051 34.2416C100.051 36.3901 100.509 38.292 101.425 39.9473C102.376 41.6027 103.661 42.9058 105.281 43.8568C106.902 44.8077 108.768 45.2832 110.881 45.2832C112.149 45.2832 113.417 45.0719 114.685 44.6492C115.988 44.1914 117.027 43.6278 117.802 42.9587C118.19 42.6417 118.63 42.4832 119.123 42.4832C119.616 42.448 120.039 42.5712 120.391 42.853C120.849 43.2756 121.078 43.7335 121.078 44.2266C121.113 44.7197 120.919 45.1423 120.497 45.4945C119.334 46.4807 117.855 47.3084 116.059 47.9776C114.263 48.6115 112.537 48.9285 110.881 48.9285Z" fill="#FFFFFF"/>
<path d="M169.273 48.6644C168.674 48.6644 168.181 48.4883 167.794 48.1361C167.406 47.7486 167.212 47.2555 167.212 46.6568V31.4416C167.212 28.941 166.561 26.9686 165.258 25.5246C163.955 24.0453 162.282 23.3057 160.239 23.3057C158.055 23.3057 156.259 24.0453 154.85 25.5246C153.476 26.9686 152.807 28.9058 152.842 31.336H149.197C149.232 28.9762 149.743 26.8982 150.729 25.102C151.715 23.3057 153.071 21.9145 154.797 20.9284C156.523 19.9422 158.478 19.4491 160.661 19.4491C162.739 19.4491 164.571 19.9422 166.156 20.9284C167.776 21.9145 169.026 23.3057 169.907 25.102C170.822 26.8982 171.28 29.0114 171.28 31.4416V46.6568C171.28 47.2555 171.087 47.7486 170.699 48.1361C170.347 48.4883 169.872 48.6644 169.273 48.6644ZM132.291 48.6644C131.657 48.6644 131.147 48.4883 130.759 48.1361C130.407 47.7486 130.231 47.2555 130.231 46.6568V21.8265C130.231 21.2277 130.407 20.7346 130.759 20.3472C131.147 19.9598 131.657 19.7661 132.291 19.7661C132.89 19.7661 133.366 19.9598 133.718 20.3472C134.105 20.7346 134.299 21.2277 134.299 21.8265V46.6568C134.299 47.2555 134.105 47.7486 133.718 48.1361C133.366 48.4883 132.89 48.6644 132.291 48.6644ZM150.835 48.6644C150.236 48.6644 149.743 48.4883 149.356 48.1361C148.968 47.7486 148.775 47.2555 148.775 46.6568V31.4416C148.775 28.941 148.123 26.9686 146.82 25.5246C145.517 24.0453 143.844 23.3057 141.801 23.3057C139.617 23.3057 137.821 24.0277 136.412 25.4718C135.003 26.8806 134.299 28.7297 134.299 31.019H131.393C131.464 28.7649 131.957 26.7749 132.873 25.0491C133.824 23.2881 135.109 21.9145 136.729 20.9284C138.349 19.9422 140.181 19.4491 142.224 19.4491C144.302 19.4491 146.133 19.9422 147.718 20.9284C149.338 21.9145 150.588 23.3057 151.469 25.102C152.385 26.8982 152.842 29.0114 152.842 31.4416V46.6568C152.842 47.2555 152.649 47.7486 152.261 48.1361C151.909 48.4883 151.434 48.6644 150.835 48.6644Z" fill="#FFFFFF"/>
<path d="M193.008 48.9285C190.296 48.9285 187.866 48.2945 185.717 47.0266C183.569 45.7235 181.86 43.9624 180.593 41.7436C179.36 39.5247 178.743 37.024 178.743 34.2416C178.743 31.424 179.377 28.9058 180.645 26.6869C181.949 24.468 183.71 22.7246 185.928 21.4567C188.147 20.1535 190.648 19.5019 193.43 19.5019C196.213 19.5019 198.696 20.1535 200.879 21.4567C203.098 22.7246 204.842 24.468 206.11 26.6869C207.413 28.9058 208.082 31.424 208.117 34.2416L206.479 35.5096C206.479 38.0454 205.881 40.3348 204.683 42.3775C203.521 44.3851 201.918 45.9876 199.876 47.1851C197.868 48.3474 195.579 48.9285 193.008 48.9285ZM193.43 45.2304C195.473 45.2304 197.287 44.7549 198.872 43.804C200.492 42.853 201.76 41.5499 202.676 39.8945C203.627 38.2039 204.102 36.3196 204.102 34.2416C204.102 32.1284 203.627 30.2441 202.676 28.5888C201.76 26.9334 200.492 25.6303 198.872 24.6793C197.287 23.6931 195.473 23.2001 193.43 23.2001C191.423 23.2001 189.609 23.6931 187.989 24.6793C186.369 25.6303 185.083 26.9334 184.132 28.5888C183.181 30.2441 182.706 32.1284 182.706 34.2416C182.706 36.3196 183.181 38.2039 184.132 39.8945C185.083 41.5499 186.369 42.853 187.989 43.804C189.609 44.7549 191.423 45.2304 193.43 45.2304ZM206.057 48.6644C205.458 48.6644 204.965 48.4883 204.578 48.1361C204.19 47.7486 203.996 47.2555 203.996 46.6568V37.6228L205 33.4492L208.117 34.2416V46.6568C208.117 47.2555 207.924 47.7486 207.536 48.1361C207.149 48.4883 206.656 48.6644 206.057 48.6644Z" fill="#FFFFFF"/>
<path d="M240.807 48.6644C240.208 48.6644 239.715 48.4706 239.327 48.0832C238.94 47.6958 238.746 47.2203 238.746 46.6568V32.9209C238.746 30.7372 238.323 28.941 237.478 27.5322C236.668 26.1233 235.541 25.0667 234.097 24.3623C232.688 23.6579 231.086 23.3057 229.289 23.3057C227.564 23.3057 225.996 23.6403 224.588 24.3095C223.214 24.9787 222.122 25.8944 221.312 27.0567C220.502 28.219 220.097 29.5397 220.097 31.019H217.191C217.262 28.8001 217.86 26.8278 218.988 25.102C220.115 23.3409 221.611 21.9674 223.478 20.9812C225.345 19.9598 227.423 19.4491 229.712 19.4491C232.213 19.4491 234.449 19.9774 236.422 21.034C238.394 22.0554 239.944 23.5699 241.071 25.5774C242.233 27.585 242.814 30.0328 242.814 32.9209V46.6568C242.814 47.2203 242.62 47.6958 242.233 48.0832C241.846 48.4706 241.37 48.6644 240.807 48.6644ZM218.089 48.6644C217.455 48.6644 216.945 48.4883 216.557 48.1361C216.205 47.7486 216.029 47.2555 216.029 46.6568V21.8265C216.029 21.1925 216.205 20.6994 216.557 20.3472C216.945 19.9598 217.455 19.7661 218.089 19.7661C218.688 19.7661 219.164 19.9598 219.516 20.3472C219.903 20.6994 220.097 21.1925 220.097 21.8265V46.6568C220.097 47.2555 219.903 47.7486 219.516 48.1361C219.164 48.4883 218.688 48.6644 218.089 48.6644Z" fill="#FFFFFF"/>
<defs>
<clipPath id="clip0_850_1316">
<rect width="70" height="60" fill="white"/>
</clipPath>
</defs>
</svg>
