<svg width="183" height="46" viewBox="0 0 183 46" fill="none" xmlns="http://www.w3.org/2000/svg">
<g clip-path="url(#clip0_831_3708)">
<path d="M27.1011 11.6047V33.5004C27.1011 34.3569 26.7479 35.1784 26.1193 35.7841C25.4906 36.3897 24.638 36.73 23.749 36.73C22.8599 36.73 22.0073 36.3897 21.3787 35.7841C20.75 35.1784 20.3968 34.3569 20.3968 33.5004V19.8156C18.2938 20.8494 15.9683 21.3931 13.6074 21.403C11.1975 21.3852 8.82839 20.8028 6.70425 19.7061V33.3909C6.70425 34.2475 6.35108 35.0689 5.72244 35.6746C5.09379 36.2803 4.24117 36.6205 3.35213 36.6205C2.46309 36.6205 1.61046 36.2803 0.981815 35.6746C0.353169 35.0689 0 34.2475 0 33.3909L0 11.4952C0 10.6387 0.353169 9.81723 0.981815 9.21156C1.61046 8.60589 2.46309 8.26562 3.35213 8.26562C4.24117 8.26562 5.09379 8.60589 5.72244 9.21156C6.35108 9.81723 6.70425 10.6387 6.70425 11.4952V14.8343C8.68743 16.2455 11.0851 17.0123 13.5505 17.0239C16.01 17.0037 18.4022 16.2482 20.3968 14.8617V11.6047C20.3968 10.7482 20.75 9.9267 21.3787 9.32103C22.0073 8.71536 22.8599 8.3751 23.749 8.3751C24.638 8.3751 25.4906 8.71536 26.1193 9.32103C26.7479 9.9267 27.1011 10.7482 27.1011 11.6047V11.6047Z" fill="white"/>
<path d="M6.70425 3.22961C6.70425 1.44595 5.20345 0 3.35213 0C1.5008 0 0 1.44595 0 3.22961V3.80437C0 5.58804 1.5008 7.03399 3.35213 7.03399C5.20345 7.03399 6.70425 5.58804 6.70425 3.80437V3.22961Z" fill="white"/>
<path d="M27.101 3.22961C27.101 1.44595 25.6002 0 23.7489 0C21.8975 0 20.3967 1.44595 20.3967 3.22961V3.80437C20.3967 5.58804 21.8975 7.03399 23.7489 7.03399C25.6002 7.03399 27.101 5.58804 27.101 3.80437V3.22961Z" fill="white"/>
</g>
<path d="M38.9359 45.1442C38.7238 45.1442 38.4852 45.0923 38.22 44.9885C37.3186 44.599 37.0667 43.9759 37.4644 43.1191L50.3105 15.3894C50.7082 14.5586 51.3445 14.3249 52.2195 14.6884C53.121 15.0519 53.3729 15.6621 52.9752 16.5189L40.0893 44.2485C39.8241 44.8457 39.4397 45.1442 38.9359 45.1442ZM43.3505 35.213C42.9528 35.3947 42.5816 35.4337 42.2369 35.3298C41.8923 35.2 41.6139 34.9404 41.4017 34.5509L32.5328 16.5578C32.3472 16.1684 32.3206 15.8049 32.4532 15.4673C32.5858 15.1298 32.8509 14.8702 33.2486 14.6884C33.6464 14.5067 34.0176 14.4807 34.3622 14.6105C34.7069 14.7144 34.9721 14.961 35.1577 15.3505L43.8676 33.3436C44.0797 33.733 44.146 34.0965 44.0664 34.4341C43.9869 34.7716 43.7482 35.0312 43.3505 35.213Z" fill="white"/>
<path d="M58.2588 22.7502C58.3384 21.1405 58.7626 19.6995 59.5315 18.4272C60.3269 17.155 61.3477 16.1554 62.5939 15.4284C63.8666 14.7014 65.2718 14.3379 66.8096 14.3379C68.0293 14.3379 68.9705 14.5067 69.6334 14.8442C70.2963 15.1817 70.5481 15.675 70.3891 16.3241C70.283 16.7136 70.0974 16.9732 69.8323 17.1031C69.5936 17.2329 69.2887 17.2848 68.9175 17.2588C68.5728 17.2329 68.1751 17.2069 67.7244 17.181C66.2396 17.0511 64.9139 17.2069 63.7473 17.6483C62.6072 18.0637 61.6924 18.7128 61.003 19.5956C60.3402 20.4784 60.0088 21.5299 60.0088 22.7502H58.2588ZM58.4975 35.8751C58.0202 35.8751 57.649 35.7453 57.3839 35.4856C57.1187 35.226 56.9862 34.8625 56.9862 34.3951V16.0515C56.9862 15.5842 57.1187 15.2207 57.3839 14.961C57.649 14.7014 58.0202 14.5716 58.4975 14.5716C58.9747 14.5716 59.3459 14.7014 59.6111 14.961C59.8762 15.2207 60.0088 15.5842 60.0088 16.0515V34.3951C60.0088 34.8625 59.8762 35.226 59.6111 35.4856C59.3459 35.7453 58.9747 35.8751 58.4975 35.8751Z" fill="white"/>
<path d="M83.4725 36.0698C81.3249 36.0698 79.4159 35.6154 77.7455 34.7067C76.1016 33.772 74.8024 32.4868 73.8479 30.851C72.9199 29.2153 72.4559 27.3459 72.4559 25.2428C72.4559 23.1137 72.8934 21.2443 73.7684 19.6346C74.6698 17.9988 75.9028 16.7136 77.4671 15.7789C79.0314 14.8442 80.8344 14.3768 82.876 14.3768C84.891 14.3768 86.641 14.8312 88.1258 15.74C89.6371 16.6227 90.8037 17.856 91.6256 19.4398C92.4476 21.0236 92.8585 22.8281 92.8585 24.8533C92.8585 25.2688 92.726 25.6063 92.4608 25.8659C92.1957 26.0996 91.851 26.2164 91.4268 26.2164H74.524V23.7239H91.745L90.0348 24.9312C90.0613 23.4253 89.7829 22.0752 89.1996 20.8808C88.6163 19.6865 87.7811 18.7518 86.694 18.0767C85.6334 17.4017 84.3608 17.0641 82.876 17.0641C81.3647 17.0641 80.039 17.4146 78.8989 18.1157C77.7587 18.8167 76.8705 19.7903 76.2342 21.0366C75.6244 22.2569 75.3194 23.659 75.3194 25.2428C75.3194 26.8266 75.6641 28.2287 76.3535 29.449C77.0694 30.6693 78.0371 31.63 79.2568 32.331C80.4764 33.032 81.8817 33.3825 83.4725 33.3825C84.4271 33.3825 85.3816 33.2267 86.3361 32.9152C87.3171 32.5776 88.0993 32.1622 88.6826 31.6689C88.9742 31.4352 89.3057 31.3184 89.6769 31.3184C90.048 31.2924 90.3662 31.3833 90.6314 31.591C90.976 31.9026 91.1484 32.2401 91.1484 32.6036C91.1749 32.9671 91.0291 33.2787 90.7109 33.5383C89.8359 34.2653 88.7223 34.8755 87.3701 35.3688C86.0179 35.8361 84.7187 36.0698 83.4725 36.0698Z" fill="white"/>
<path d="M127.43 35.8751C126.979 35.8751 126.608 35.7453 126.316 35.4856C126.025 35.2 125.879 34.8365 125.879 34.3951V23.1787C125.879 21.3352 125.388 19.8812 124.407 18.8167C123.426 17.7262 122.167 17.181 120.629 17.181C118.985 17.181 117.633 17.7262 116.572 18.8167C115.538 19.8812 115.035 21.3092 115.061 23.1008H112.317C112.343 21.3612 112.728 19.8293 113.47 18.5051C114.213 17.181 115.233 16.1554 116.533 15.4284C117.832 14.7014 119.303 14.3379 120.947 14.3379C122.512 14.3379 123.89 14.7014 125.083 15.4284C126.303 16.1554 127.244 17.181 127.907 18.5051C128.597 19.8293 128.941 21.3871 128.941 23.1787V34.3951C128.941 34.8365 128.795 35.2 128.504 35.4856C128.239 35.7453 127.881 35.8751 127.43 35.8751ZM99.5901 35.8751C99.1129 35.8751 98.7284 35.7453 98.4368 35.4856C98.1716 35.2 98.0391 34.8365 98.0391 34.3951V16.0905C98.0391 15.6491 98.1716 15.2856 98.4368 15C98.7284 14.7144 99.1129 14.5716 99.5901 14.5716C100.041 14.5716 100.399 14.7144 100.664 15C100.956 15.2856 101.101 15.6491 101.101 16.0905V34.3951C101.101 34.8365 100.956 35.2 100.664 35.4856C100.399 35.7453 100.041 35.8751 99.5901 35.8751ZM113.55 35.8751C113.099 35.8751 112.728 35.7453 112.436 35.4856C112.145 35.2 111.999 34.8365 111.999 34.3951V23.1787C111.999 21.3352 111.508 19.8812 110.527 18.8167C109.546 17.7262 108.287 17.181 106.749 17.181C105.105 17.181 103.753 17.7132 102.692 18.7777C101.632 19.8163 101.101 21.1794 101.101 22.8671H98.914C98.9671 21.2054 99.3382 19.7384 100.028 18.4662C100.743 17.168 101.711 16.1554 102.931 15.4284C104.151 14.7014 105.529 14.3379 107.067 14.3379C108.631 14.3379 110.01 14.7014 111.203 15.4284C112.423 16.1554 113.364 17.181 114.027 18.5051C114.716 19.8293 115.061 21.3871 115.061 23.1787V34.3951C115.061 34.8365 114.915 35.2 114.624 35.4856C114.359 35.7453 114.001 35.8751 113.55 35.8751Z" fill="white"/>
<path d="M145.298 36.0698C143.256 36.0698 141.427 35.6025 139.809 34.6677C138.192 33.7071 136.906 32.4089 135.952 30.7731C135.024 29.1374 134.56 27.294 134.56 25.2428C134.56 23.1657 135.037 21.3092 135.991 19.6735C136.972 18.0378 138.298 16.7525 139.968 15.8178C141.639 14.8572 143.521 14.3768 145.616 14.3768C147.711 14.3768 149.58 14.8572 151.224 15.8178C152.894 16.7525 154.207 18.0378 155.161 19.6735C156.142 21.3092 156.646 23.1657 156.672 25.2428L155.439 26.1775C155.439 28.0469 154.989 29.7346 154.087 31.2405C153.212 32.7204 152.006 33.9018 150.468 34.7846C148.957 35.6414 147.233 36.0698 145.298 36.0698ZM145.616 33.3436C147.154 33.3436 148.519 32.9931 149.712 32.292C150.932 31.591 151.887 30.6303 152.576 29.41C153.292 28.1638 153.65 26.7747 153.65 25.2428C153.65 23.685 153.292 22.2959 152.576 21.0756C151.887 19.8553 150.932 18.8946 149.712 18.1936C148.519 17.4666 147.154 17.1031 145.616 17.1031C144.105 17.1031 142.739 17.4666 141.52 18.1936C140.3 18.8946 139.332 19.8553 138.616 21.0756C137.9 22.2959 137.542 23.685 137.542 25.2428C137.542 26.7747 137.9 28.1638 138.616 29.41C139.332 30.6303 140.3 31.591 141.52 32.292C142.739 32.9931 144.105 33.3436 145.616 33.3436ZM155.121 35.8751C154.671 35.8751 154.299 35.7453 154.008 35.4856C153.716 35.2 153.57 34.8365 153.57 34.3951V27.7353L154.326 24.6586L156.672 25.2428V34.3951C156.672 34.8365 156.527 35.2 156.235 35.4856C155.943 35.7453 155.572 35.8751 155.121 35.8751Z" fill="white"/>
<path d="M181.281 35.8751C180.83 35.8751 180.459 35.7323 180.168 35.4467C179.876 35.1611 179.73 34.8106 179.73 34.3951V24.2691C179.73 22.6594 179.412 21.3352 178.776 20.2966C178.166 19.2581 177.317 18.4792 176.23 17.9599C175.17 17.4406 173.963 17.181 172.611 17.181C171.312 17.181 170.132 17.4276 169.071 17.9209C168.037 18.4142 167.215 19.0893 166.606 19.9461C165.996 20.8029 165.691 21.7766 165.691 22.8671H163.503C163.556 21.2313 164.007 19.7774 164.856 18.5051C165.704 17.2069 166.831 16.1943 168.236 15.4673C169.641 14.7144 171.206 14.3379 172.929 14.3379C174.812 14.3379 176.495 14.7274 177.98 15.5063C179.465 16.2592 180.632 17.3757 181.48 18.8556C182.355 20.3356 182.792 22.1401 182.792 24.2691V34.3951C182.792 34.8106 182.647 35.1611 182.355 35.4467C182.063 35.7323 181.705 35.8751 181.281 35.8751ZM164.18 35.8751C163.702 35.8751 163.318 35.7453 163.026 35.4856C162.761 35.2 162.628 34.8365 162.628 34.3951V16.0905C162.628 15.6231 162.761 15.2596 163.026 15C163.318 14.7144 163.702 14.5716 164.18 14.5716C164.63 14.5716 164.988 14.7144 165.253 15C165.545 15.2596 165.691 15.6231 165.691 16.0905V34.3951C165.691 34.8365 165.545 35.2 165.253 35.4856C164.988 35.7453 164.63 35.8751 164.18 35.8751Z" fill="white"/>
<defs>
<clipPath id="clip0_831_3708">
<rect width="27.1011" height="36.7026" fill="white"/>
</clipPath>
</defs>
</svg>
