<svg width="23" height="24" viewBox="0 0 23 24" fill="none" xmlns="http://www.w3.org/2000/svg">
<path d="M11.4254 20.117C8.63611 20.117 6.17038 18.6889 4.73111 16.5468C4.76458 14.3153 9.19396 13.088 11.4254 13.088C13.6568 13.088 18.0862 14.3153 18.1197 16.5468C16.6804 18.6889 14.2147 20.117 11.4254 20.117ZM11.4254 4.2739C12.3131 4.2739 13.1645 4.62655 13.7922 5.25426C14.4199 5.88197 14.7725 6.73333 14.7725 7.62104C14.7725 8.50876 14.4199 9.36012 13.7922 9.98783C13.1645 10.6155 12.3131 10.9682 11.4254 10.9682C10.5377 10.9682 9.68632 10.6155 9.0586 9.98783C8.43089 9.36012 8.07825 8.50876 8.07825 7.62104C8.07825 6.73333 8.43089 5.88197 9.0586 5.25426C9.68632 4.62655 10.5377 4.2739 11.4254 4.2739V4.2739ZM11.4254 0.926758C9.96022 0.926758 8.50939 1.21535 7.15574 1.77604C5.80209 2.33674 4.57214 3.15857 3.5361 4.19461C1.44373 6.28698 0.26825 9.12484 0.26825 12.0839C0.26825 15.043 1.44373 17.8808 3.5361 19.9732C4.57214 21.0092 5.80209 21.8311 7.15574 22.3918C8.50939 22.9525 9.96022 23.241 11.4254 23.241C14.3845 23.241 17.2223 22.0656 19.3147 19.9732C21.4071 17.8808 22.5825 15.043 22.5825 12.0839C22.5825 5.914 17.5618 0.926758 11.4254 0.926758Z" fill="#686B6F"/>
</svg>
