<svg width="22" height="24" viewBox="0 0 22 24" fill="none" xmlns="http://www.w3.org/2000/svg">
<path d="M13.2544 20.9256C13.2544 21.5174 13.017 22.085 12.5943 22.5035C12.1716 22.922 11.5983 23.1571 11.0005 23.1571C10.4027 23.1571 9.82937 22.922 9.40667 22.5035C8.98396 22.085 8.74649 21.5174 8.74649 20.9256H13.2544ZM11.0005 0.842773C11.2994 0.842773 11.586 0.960321 11.7974 1.16956C12.0087 1.3788 12.1274 1.66258 12.1274 1.95849V3.16346C15.3281 3.699 17.7624 6.45482 17.7624 9.76849V16.4628L21.1433 19.8099H0.857605L4.23856 16.4628V9.76849C4.23856 6.45482 6.67284 3.699 9.87348 3.16346V1.95849C9.87348 1.66258 9.99221 1.3788 10.2036 1.16956C10.4149 0.960321 10.7016 0.842773 11.0005 0.842773V0.842773Z" fill="#686B6F"/>
</svg>
