<svg width="22" height="24" viewBox="0 0 22 24" fill="none" xmlns="http://www.w3.org/2000/svg">
<path d="M13.2545 20.9256C13.2545 21.5174 13.017 22.085 12.5943 22.5035C12.1716 22.922 11.5983 23.1571 11.0005 23.1571C10.4027 23.1571 9.82943 22.922 9.40673 22.5035C8.98403 22.085 8.74655 21.5174 8.74655 20.9256H13.2545ZM11.0005 0.842773C11.2994 0.842773 11.5861 0.960321 11.7974 1.16956C12.0088 1.3788 12.1275 1.66258 12.1275 1.95849V3.16346C15.3281 3.699 17.7624 6.45482 17.7624 9.76849V16.4628L21.1434 19.8099H0.857666L4.23862 16.4628V9.76849C4.23862 6.45482 6.6729 3.699 9.87354 3.16346V1.95849C9.87354 1.66258 9.99227 1.3788 10.2036 1.16956C10.415 0.960321 10.7016 0.842773 11.0005 0.842773V0.842773Z" fill="#686B6F"/>
</svg>
