<svg width="23" height="24" viewBox="0 0 23 24" fill="none" xmlns="http://www.w3.org/2000/svg">
<path d="M11.4255 20.117C8.63617 20.117 6.17044 18.6889 4.73117 16.5468C4.76464 14.3153 9.19403 13.088 11.4255 13.088C13.6569 13.088 18.0863 14.3153 18.1197 16.5468C16.6805 18.6889 14.2147 20.117 11.4255 20.117ZM11.4255 4.2739C12.3132 4.2739 13.1645 4.62655 13.7922 5.25426C14.42 5.88197 14.7726 6.73333 14.7726 7.62104C14.7726 8.50876 14.42 9.36012 13.7922 9.98783C13.1645 10.6155 12.3132 10.9682 11.4255 10.9682C10.5377 10.9682 9.68638 10.6155 9.05867 9.98783C8.43095 9.36012 8.07831 8.50876 8.07831 7.62104C8.07831 6.73333 8.43095 5.88197 9.05867 5.25426C9.68638 4.62655 10.5377 4.2739 11.4255 4.2739V4.2739ZM11.4255 0.926758C9.96028 0.926758 8.50945 1.21535 7.1558 1.77604C5.80215 2.33674 4.5722 3.15857 3.53616 4.19461C1.44379 6.28698 0.268311 9.12484 0.268311 12.0839C0.268311 15.043 1.44379 17.8808 3.53616 19.9732C4.5722 21.0092 5.80215 21.8311 7.1558 22.3918C8.50945 22.9525 9.96028 23.241 11.4255 23.241C14.3845 23.241 17.2224 22.0656 19.3147 19.9732C21.4071 17.8808 22.5826 15.043 22.5826 12.0839C22.5826 5.914 17.5619 0.926758 11.4255 0.926758Z" fill="#686B6F"/>
</svg>
