<svg width="22" height="22" viewBox="0 0 22 22" fill="none" xmlns="http://www.w3.org/2000/svg">
<path d="M18.9089 12.0033L18.8721 12.289L19.1009 12.4641L21.4864 14.2896C21.4864 14.2896 21.4864 14.2896 21.4864 14.2896C21.4935 14.2951 21.4975 14.3015 21.4992 14.3104C21.5009 14.3193 21.5006 14.3329 21.4921 14.3493L19.235 18.1476L19.2349 18.1475L19.2288 18.1584L19.2287 18.1585C19.2284 18.1591 19.2243 18.1668 19.205 18.1732C19.1847 18.1799 19.1625 18.1796 19.1462 18.175L16.3427 17.0689L16.0831 16.9665L15.8597 17.1337C15.3006 17.5519 14.7277 17.8917 14.0618 18.159L13.7941 18.2664L13.7531 18.552L13.3363 21.4558C13.3323 21.4702 13.3117 21.5 13.2642 21.5H8.74078C8.69326 21.5 8.67265 21.4702 8.66868 21.4558L8.25186 18.552L8.21024 18.262L7.93698 18.1565C7.27902 17.9026 6.70851 17.5551 6.14533 17.1337L5.92188 16.9665L5.66227 17.0689L2.85882 18.175C2.84245 18.1796 2.82027 18.1799 2.8 18.1732C2.78031 18.1666 2.77642 18.1588 2.77623 18.1584L2.77637 18.1584L2.76995 18.1476L0.508237 14.3416L0.508257 14.3416L0.505733 14.3374C0.501726 14.3308 0.500675 14.3265 0.500302 14.3243C0.499879 14.3218 0.499854 14.3191 0.500525 14.3158C0.501882 14.3091 0.506475 14.299 0.518506 14.2897C0.51855 14.2896 0.518594 14.2896 0.518639 14.2896L2.90408 12.4641L3.13286 12.289L3.09614 12.0033C3.05213 11.6608 3.02106 11.3325 3.02106 11C3.02106 10.6668 3.05222 10.3269 3.0966 9.96004L3.13125 9.6736L2.90058 9.50027L0.517588 7.70962C0.506239 7.70053 0.501847 7.69074 0.500525 7.68424C0.499854 7.68094 0.499879 7.67816 0.500302 7.67567C0.500675 7.67348 0.501726 7.66919 0.505733 7.6626L0.505753 7.66261L0.508237 7.65843L2.76995 3.85243L2.77009 3.85251L2.77623 3.84155C2.779 3.83662 2.78671 3.82729 2.8047 3.82113C2.82382 3.81458 2.83892 3.81712 2.84508 3.81957L2.84801 3.82073L5.66385 4.92073L5.91909 5.02043L6.14047 4.85893C6.70684 4.44574 7.27854 4.09762 7.93698 3.84346L8.21024 3.73798L8.25186 3.44804L8.66868 0.54419C8.67265 0.52979 8.69326 0.5 8.74078 0.5H13.2642C13.3117 0.5 13.3323 0.52979 13.3363 0.54419L13.7531 3.44804L13.7948 3.73798L14.068 3.84346C14.7265 4.09762 15.2982 4.44574 15.8645 4.85893L16.0859 5.02043L16.3411 4.92073L19.157 3.82073L19.1599 3.81957C19.1661 3.81712 19.1812 3.81458 19.2003 3.82113C19.2183 3.82729 19.226 3.83662 19.2288 3.84155L19.2286 3.84163L19.235 3.85243L21.4921 7.65066C21.5006 7.66714 21.5009 7.68068 21.4992 7.68957C21.4975 7.69818 21.4938 7.70439 21.4873 7.70972C21.487 7.70996 21.4867 7.7102 21.4864 7.71044L19.1044 9.50027L18.8738 9.6736L18.9084 9.96004C18.9528 10.3269 18.9839 10.6668 18.9839 11C18.9839 11.3325 18.9529 11.6608 18.9089 12.0033ZM7.85514 14.0808C8.69217 14.895 9.82456 15.35 11.0025 15.35C12.1804 15.35 13.3128 14.895 14.1499 14.0808C14.9874 13.2661 15.4605 12.1582 15.4605 11C15.4605 9.84177 14.9874 8.73388 14.1499 7.91923C13.3128 7.10504 12.1804 6.65 11.0025 6.65C9.82456 6.65 8.69217 7.10504 7.85514 7.91923C7.01763 8.73388 6.54449 9.84177 6.54449 11C6.54449 12.1582 7.01763 13.2661 7.85514 14.0808Z" stroke="white"/>
</svg>
