<svg width="102" height="102" viewBox="0 0 102 102" fill="none" xmlns="http://www.w3.org/2000/svg">
<path d="M51.204 87.0877C38.554 87.0877 27.3714 80.6109 20.844 70.8957C20.9958 60.7757 41.084 55.2097 51.204 55.2097C61.324 55.2097 81.4122 60.7757 81.564 70.8957C75.0366 80.6109 63.854 87.0877 51.204 87.0877ZM51.204 15.2357C55.23 15.2357 59.0911 16.835 61.9379 19.6818C64.7847 22.5286 66.384 26.3897 66.384 30.4157C66.384 34.4417 64.7847 38.3027 61.9379 41.1496C59.0911 43.9964 55.23 45.5957 51.204 45.5957C47.178 45.5957 43.3169 43.9964 40.4701 41.1496C37.6233 38.3027 36.024 34.4417 36.024 30.4157C36.024 26.3897 37.6233 22.5286 40.4701 19.6818C43.3169 16.835 47.178 15.2357 51.204 15.2357V15.2357ZM51.204 0.0556641C44.5591 0.0556641 37.9793 1.36447 31.8402 3.90736C25.7011 6.45025 20.123 10.1774 15.4244 14.8761C5.93506 24.3654 0.604004 37.2357 0.604004 50.6557C0.604004 64.0756 5.93506 76.9459 15.4244 86.4353C20.123 91.1339 25.7011 94.8611 31.8402 97.404C37.9793 99.9469 44.5591 101.256 51.204 101.256C64.624 101.256 77.4943 95.9246 86.9836 86.4353C96.473 76.9459 101.804 64.0756 101.804 50.6557C101.804 22.6739 79.034 0.0556641 51.204 0.0556641Z" fill="#686B6F"/>
</svg>
