<svg width="24" height="24" viewBox="0 0 24 24" fill="none" xmlns="http://www.w3.org/2000/svg">
<path fill-rule="evenodd" clip-rule="evenodd" d="M6 12.0335C6 15.0165 8.1665 17.497 11 18V13.6665H9.5V12H11V10.6665C11 9.1665 11.9665 8.3335 13.3335 8.3335C13.7665 8.3335 14.2335 8.4 14.6665 8.4665V10H13.9C13.1665 10 13 10.3665 13 10.8335V12H14.6L14.3335 13.6665H13V18C15.8335 17.497 18 15.017 18 12.0335C18 8.715 15.3 6 12 6C8.7 6 6 8.715 6 12.0335Z" fill="black" fill-opacity="0.5"/>
<rect x="0.25" y="0.25" width="23.5" height="23.5" rx="11.75" stroke="black" stroke-opacity="0.5" stroke-width="0.5"/>
</svg>
