<svg width="24" height="24" viewBox="0 0 24 24" fill="none" xmlns="http://www.w3.org/2000/svg">
<path d="M17.6765 8.4805C17.259 8.6655 16.8105 8.7905 16.339 8.847C16.8255 8.5559 17.1895 8.09773 17.363 7.558C16.9059 7.8295 16.4057 8.0206 15.884 8.123C15.5332 7.74843 15.0685 7.50016 14.5621 7.41674C14.0558 7.33331 13.536 7.4194 13.0836 7.66163C12.6312 7.90386 12.2714 8.28868 12.0601 8.75635C11.8488 9.22402 11.7978 9.74838 11.915 10.248C10.9888 10.2015 10.0828 9.96078 9.2557 9.54145C8.4286 9.12213 7.69891 8.53358 7.11399 7.814C6.91399 8.159 6.79899 8.559 6.79899 8.985C6.79876 9.3685 6.8932 9.74612 7.07393 10.0844C7.25465 10.4226 7.51607 10.711 7.83499 10.924C7.46512 10.9122 7.10342 10.8123 6.77999 10.6325V10.6625C6.77995 11.2004 6.966 11.7217 7.30658 12.138C7.64715 12.5543 8.12127 12.84 8.64849 12.9465C8.30538 13.0394 7.94565 13.053 7.59649 12.9865C7.74523 13.4493 8.03498 13.854 8.42517 14.144C8.81536 14.4339 9.28644 14.5946 9.77249 14.6035C8.9474 15.2512 7.92843 15.6025 6.87949 15.601C6.69368 15.6011 6.50802 15.5902 6.32349 15.5685C7.38822 16.2531 8.62766 16.6164 9.89349 16.615C14.1785 16.615 16.521 13.066 16.521 9.988C16.521 9.888 16.5185 9.787 16.514 9.687C16.9696 9.35749 17.3629 8.94945 17.6755 8.482L17.6765 8.4805Z" fill="black" fill-opacity="0.5"/>
<rect x="0.25" y="0.25" width="23.5" height="23.5" rx="11.75" stroke="black" stroke-opacity="0.5" stroke-width="0.5"/>
</svg>
