<svg width="24" height="24" viewBox="0 0 24 24" fill="none" xmlns="http://www.w3.org/2000/svg">
<path fill-rule="evenodd" clip-rule="evenodd" d="M10.4574 10.1814H12.6858V11.2914C13.0068 10.653 13.83 10.0794 15.0666 10.0794C17.4372 10.0794 18 11.3502 18 13.6818V18H15.6V14.2128C15.6 12.885 15.279 12.1362 14.4618 12.1362C13.3284 12.1362 12.8574 12.9432 12.8574 14.2122V18H10.4574V10.1814ZM6.342 17.898H8.742V10.0794H6.342V17.898ZM9.0858 7.53C9.08589 7.73117 9.04599 7.93034 8.96843 8.11595C8.89087 8.30156 8.77719 8.46991 8.634 8.6112C8.34384 8.89957 7.95109 9.06099 7.542 9.06C7.13363 9.05973 6.74179 8.89872 6.4512 8.6118C6.30853 8.47003 6.19523 8.30149 6.11781 8.11586C6.04038 7.93022 6.00035 7.73113 6 7.53C6 7.1238 6.162 6.735 6.4518 6.4482C6.74213 6.1609 7.13414 5.99982 7.5426 6C7.9518 6 8.3442 6.1614 8.634 6.4482C8.9232 6.735 9.0858 7.1238 9.0858 7.53Z" fill="black" fill-opacity="0.5"/>
<rect x="0.25" y="0.25" width="23.5" height="23.5" rx="11.75" stroke="black" stroke-opacity="0.5" stroke-width="0.5"/>
</svg>
