<svg width="23" height="24" viewBox="0 0 23 24" fill="none" xmlns="http://www.w3.org/2000/svg">
<path d="M11.4253 20.117C8.63605 20.117 6.17032 18.6889 4.73105 16.5468C4.76452 14.3153 9.1939 13.088 11.4253 13.088C13.6568 13.088 18.0861 14.3153 18.1196 16.5468C16.6803 18.6889 14.2146 20.117 11.4253 20.117ZM11.4253 4.2739C12.313 4.2739 13.1644 4.62655 13.7921 5.25426C14.4198 5.88197 14.7725 6.73333 14.7725 7.62104C14.7725 8.50876 14.4198 9.36012 13.7921 9.98783C13.1644 10.6155 12.313 10.9682 11.4253 10.9682C10.5376 10.9682 9.68625 10.6155 9.05854 9.98783C8.43083 9.36012 8.07819 8.50876 8.07819 7.62104C8.07819 6.73333 8.43083 5.88197 9.05854 5.25426C9.68625 4.62655 10.5376 4.2739 11.4253 4.2739ZM11.4253 0.926758C9.96015 0.926758 8.50932 1.21535 7.15568 1.77604C5.80203 2.33674 4.57208 3.15857 3.53604 4.19461C1.44367 6.28698 0.268188 9.12484 0.268188 12.0839C0.268188 15.043 1.44367 17.8808 3.53604 19.9732C4.57208 21.0092 5.80203 21.8311 7.15568 22.3918C8.50932 22.9525 9.96015 23.241 11.4253 23.241C14.3844 23.241 17.2223 22.0656 19.3146 19.9732C21.407 17.8808 22.5825 15.043 22.5825 12.0839C22.5825 5.914 17.5618 0.926758 11.4253 0.926758Z" fill="#686B6F"/>
</svg>
