<svg width="22" height="24" viewBox="0 0 22 24" fill="none" xmlns="http://www.w3.org/2000/svg">
<path d="M13.2544 20.9256C13.2544 21.5174 13.0169 22.085 12.5942 22.5035C12.1715 22.922 11.5982 23.1571 11.0004 23.1571C10.4026 23.1571 9.82931 22.922 9.4066 22.5035C8.9839 22.085 8.74643 21.5174 8.74643 20.9256H13.2544ZM11.0004 0.842773C11.2993 0.842773 11.5859 0.960322 11.7973 1.16956C12.0086 1.3788 12.1274 1.66258 12.1274 1.95849V3.16346C15.328 3.699 17.7623 6.45482 17.7623 9.76849V16.4628L21.1433 19.8099H0.857544L4.2385 16.4628V9.76849C4.2385 6.45482 6.67278 3.699 9.87342 3.16346V1.95849C9.87342 1.66258 9.99215 1.3788 10.2035 1.16956C10.4149 0.960322 10.7015 0.842773 11.0004 0.842773Z" fill="#686B6F"/>
</svg>
